# xmcd
#
# Track frame offsets:
#	150
#	14787
#	26371
#	35660
#	47561
#	61497
#	73676
#	85692
#	96786
#	109474
#	124619
#	134312
#	148996
#	159668
#	175514
#	187971
#	202684
#	215765
#	226130
#	240229
#	253147
#	266257
#	278734
#	291825
#	303505
#	317978
#	331511
#	345504
#
# Disc length: 4772 seconds
#
# Revision: 0
# Processed by: cddbd v1.5.1PL2 Copyright (c) Steve Scherf et al.
# Submitted via: EasyCDDAExtractor 4.6.9.1
#
DISCID=9212a21c
DTITLE=Wanda Jackson - Tears Will Be The Chaser For Your Wine - CD 6
DYEAR=1997
DGENRE=Country
TTITLE0=Don't He Shine
TTITLE1=Happy Tracks
TTITLE2=Chicken On The Ground
TTITLE3=Am I Not My Brothers Keeper
TTITLE4=Jubal
TTITLE5=Crazy
TTITLE6=Song Of The Wind
TTITLE7=Missing You
TTITLE8=The More You See Me Less
TTITLE9=Back Then
TTITLE10=I Already Know What I'm Gettin
TTITLE11=I'll Still Belong To You
TTITLE12=My Testymony
TTITLE13=The King Is Coming
TTITLE14=He's The Man
TTITLE15=How Great Thou Art
TTITLE16=I Wouldn't Want You Any Other Way
TTITLE17=I'll Be Whatever You say
TTITLE18=Tennessee Women's Prison
TTITLE19=Roll With The Tide
TTITLE20=I Don't Know How To Tell Him
TTITLE21=I Don't Believe I'll Fall In Love Today
TTITLE22=He's My Everything
TTITLE23=Pass Me By
TTITLE24=You Took Him Off My Hands
TTITLE25=Rueben James
TTITLE26=A Wound Time Can't Erase
TTITLE27=You're Memory Comes And Gets Me
EXTD=
EXTT0=
EXTT1=
EXTT2=
EXTT3=
EXTT4=
EXTT5=
EXTT6=
EXTT7=
EXTT8=
EXTT9=
EXTT10=
EXTT11=
EXTT12=
EXTT13=
EXTT14=
EXTT15=
EXTT16=
EXTT17=
EXTT18=
EXTT19=
EXTT20=
EXTT21=
EXTT22=
EXTT23=
EXTT24=
EXTT25=
EXTT26=
EXTT27=
PLAYORDER=
